<?xml version="1.0" encoding="UTF-8" standalone="no"?>
<svg width="124px" height="14px" viewBox="0 0 124 14" version="1.1" xmlns="http://www.w3.org/2000/svg" xmlns:xlink="http://www.w3.org/1999/xlink" xmlns:sketch="http://www.bohemiancoding.com/sketch/ns">
    <!-- Generator: Sketch 3.3.3 (12072) - http://www.bohemiancoding.com/sketch -->
    <title>logo</title>
    <desc>Created with Sketch.</desc>
    <defs></defs>
    <g id="Page-1-Icons-24x24" stroke="none" stroke-width="1" fill="none" fill-rule="evenodd" sketch:type="MSPage">
        <g id="logo" sketch:type="MSArtboardGroup" fill="#FFFFFF">
            <path d="M6.13476562,13.5 L4.03417969,13.5 L4.03417969,2.45214844 L0.254882812,2.45214844 L0.254882812,0.650390625 L9.9140625,0.650390625 L9.9140625,2.45214844 L6.13476562,2.45214844 L6.13476562,13.5 Z M14.7972656,3.60351562 C15.2132834,3.60351562 15.5560534,3.63281221 15.825586,3.69140625 L15.6234375,5.61621094 C15.3304673,5.54589809 15.0257829,5.51074219 14.709375,5.51074219 C13.883199,5.51074219 13.2137721,5.78027074 12.7010742,6.31933594 C12.1883764,6.85840113 11.9320313,7.55858944 11.9320313,8.41992188 L11.9320313,13.5 L9.86660159,13.5 L9.86660159,3.77929688 L11.4837891,3.77929688 L11.75625,5.49316406 L11.8617188,5.49316406 C12.183986,4.91308304 12.604392,4.4531267 13.1229492,4.11328125 C13.6415065,3.7734358 14.1996064,3.60351562 14.7972656,3.60351562 L14.7972656,3.60351562 Z M18.7927735,13.5 L16.7273438,13.5 L16.7273438,3.77929688 L18.7927735,3.77929688 L18.7927735,13.5 Z M16.6042969,1.20410156 C16.6042969,0.834959092 16.7053701,0.550782246 16.9075196,0.3515625 C17.109669,0.152342754 17.3982404,0.052734375 17.7732422,0.052734375 C18.1365253,0.052734375 18.4192373,0.152342754 18.6213868,0.3515625 C18.8235362,0.550782246 18.9246094,0.834959092 18.9246094,1.20410156 C18.9246094,1.55566582 18.8235362,1.83251852 18.6213868,2.03466797 C18.4192373,2.23681742 18.1365253,2.33789062 17.7732422,2.33789062 C17.3982404,2.33789062 17.109669,2.23681742 16.9075196,2.03466797 C16.7053701,1.83251852 16.6042969,1.55566582 16.6042969,1.20410156 L16.6042969,1.20410156 Z M29.0373048,13.5 L26.963086,13.5 L26.963086,7.50585938 C26.963086,6.76171503 26.8224624,6.2065448 26.541211,5.84033203 C26.2599596,5.47411926 25.8205109,5.29101562 25.2228516,5.29101562 C24.4259726,5.29101562 23.8415058,5.55029038 23.4694337,6.06884766 C23.0973615,6.58740494 22.9113282,7.45018928 22.9113282,8.65722656 L22.9113282,13.5 L20.8458985,13.5 L20.8458985,3.77929688 L22.463086,3.77929688 L22.7531251,5.05371094 L22.8585938,5.05371094 C23.1281264,4.590818 23.5192358,4.2333997 24.0319337,3.98144531 C24.5446315,3.72949093 25.1085907,3.60351562 25.7238282,3.60351562 C27.2179763,3.60351562 28.2082008,4.11327615 28.6945313,5.1328125 L28.8351563,5.1328125 C29.1222671,4.65234135 29.52656,4.2773451 30.0480469,4.0078125 C30.5695339,3.7382799 31.1671842,3.60351562 31.8410157,3.60351562 C33.0011777,3.60351562 33.8463841,3.89648145 34.3766602,4.48242188 C34.9069363,5.0683623 35.1720704,5.96190806 35.1720704,7.16308594 L35.1720704,13.5 L33.1066407,13.5 L33.1066407,7.50585938 C33.1066407,6.76171503 32.9645523,6.2065448 32.6803712,5.84033203 C32.3961901,5.47411926 31.9552765,5.29101562 31.3576173,5.29101562 C30.5548789,5.29101562 29.9674824,5.5415014 29.5954102,6.04248047 C29.2233381,6.54345954 29.0373048,7.31249481 29.0373048,8.34960938 L29.0373048,13.5 Z M42.1207032,3.60351562 C43.3335999,3.60351562 44.2784147,4.04296436 44.9551759,4.921875 C45.6319371,5.80078564 45.9703126,7.03417175 45.9703126,8.62207031 C45.9703126,10.2158283 45.6275426,11.4565385 44.9419923,12.3442383 C44.256442,13.231938 43.3043031,13.6757812 42.085547,13.6757812 C40.8550721,13.6757812 39.9000035,13.2334029 39.2203126,12.3486328 L39.0796876,12.3486328 L38.7017579,13.5 L37.1548829,13.5 L37.1548829,-0.17578125 L39.2203126,-0.17578125 L39.2203126,3.07617188 C39.2203126,3.31640745 39.208594,3.67382575 39.1851563,4.1484375 C39.1617187,4.62304925 39.1441408,4.92480404 39.132422,5.05371094 L39.2203126,5.05371094 C39.8765659,4.08690923 40.8433531,3.60351562 42.1207032,3.60351562 L42.1207032,3.60351562 Z M41.5845704,5.29101562 C40.752535,5.29101562 40.1534199,5.53564208 39.7872071,6.02490234 C39.4209944,6.5141626 39.2320314,7.33300207 39.2203126,8.48144531 L39.2203126,8.62207031 C39.2203126,9.80566998 39.4078107,10.662595 39.7828126,11.1928711 C40.1578145,11.7231472 40.770113,11.9882812 41.6197267,11.9882812 C42.3521522,11.9882812 42.9073224,11.6982451 43.285254,11.1181641 C43.6631856,10.538083 43.8521485,9.70020079 43.8521485,8.60449219 C43.8521485,6.39549677 43.0962967,5.29101562 41.5845704,5.29101562 L41.5845704,5.29101562 Z M49.5351564,13.5 L47.4697267,13.5 L47.4697267,-0.17578125 L49.5351564,-0.17578125 L49.5351564,13.5 Z M55.8333986,13.6757812 C54.3216723,13.6757812 53.1395552,13.2348677 52.2870119,12.3530273 C51.4344685,11.471187 51.0082033,10.2568437 51.0082033,8.70996094 C51.0082033,7.12206237 51.4037071,5.87402798 52.1947267,4.96582031 C52.9857463,4.05761265 54.0726495,3.60351562 55.4554689,3.60351562 C56.7386784,3.60351562 57.7523402,3.99316017 58.4964845,4.77246094 C59.2406289,5.55176171 59.6126955,6.62401661 59.6126955,7.98925781 L59.6126955,9.10546875 L53.1351564,9.10546875 C53.1644534,10.0488328 53.4193337,10.7739232 53.8998048,11.2807617 C54.380276,11.7876002 55.057027,12.0410156 55.9300783,12.0410156 C56.5042999,12.0410156 57.0389625,11.9868169 57.5340822,11.878418 C58.0292018,11.770019 58.5609348,11.589845 59.129297,11.3378906 L59.129297,13.0166016 C58.6253882,13.2568371 58.1156277,13.4267573 57.6000001,13.5263672 C57.0843726,13.6259771 56.4955113,13.6757812 55.8333986,13.6757812 L55.8333986,13.6757812 Z M55.4554689,5.16796875 C54.7992156,5.16796875 54.273342,5.37597448 53.8778322,5.79199219 C53.4823224,6.20800989 53.2464849,6.81444914 53.1703126,7.61132812 L57.582422,7.61132812 C57.5707032,6.80858974 57.3773458,6.20068566 57.0023439,5.78759766 C56.627342,5.37450965 56.1117222,5.16796875 55.4554689,5.16796875 L55.4554689,5.16796875 Z M69.6623049,1.27441406 C68.0509687,1.27441406 66.7824267,1.79003391 65.8566408,2.82128906 C64.9308549,3.85254422 64.4679689,5.26463947 64.4679689,7.05761719 C64.4679689,8.89161073 64.904488,10.3154246 65.7775393,11.3291016 C66.6505905,12.3427785 67.8986249,12.8496094 69.5216799,12.8496094 C70.5998103,12.8496094 71.5900347,12.7119154 72.492383,12.4365234 L72.492383,13.2275391 C71.6427694,13.5263687 70.5822331,13.6757812 69.3107424,13.6757812 C67.5060459,13.6757812 66.0851616,13.0927793 65.0480471,11.9267578 C64.0109325,10.7607364 63.492383,9.1318464 63.492383,7.04003906 C63.492383,5.7333919 63.7399391,4.58203623 64.2350588,3.5859375 C64.7301784,2.58983877 65.4420854,1.82080349 66.370801,1.27880859 C67.2995166,0.736813696 68.3790956,0.465820312 69.6095705,0.465820312 C70.863483,0.465820312 71.9855421,0.700192969 72.9757814,1.16894531 L72.6154299,1.97753906 C71.6779252,1.50878672 70.69356,1.27441406 69.6623049,1.27441406 L69.6623049,1.27441406 Z M81.939258,8.70996094 C81.939258,10.2685625 81.5613321,11.4858355 80.8054689,12.3618164 C80.0496058,13.2377973 79.0066474,13.6757812 77.6765627,13.6757812 C76.8386679,13.6757812 76.100394,13.4736348 75.4617189,13.0693359 C74.8230438,12.665037 74.3337909,12.0849647 73.9939455,11.3291016 C73.6541,10.5732384 73.4841799,9.70020026 73.4841799,8.70996094 C73.4841799,7.15135939 73.8621058,5.93701607 74.6179689,5.06689453 C75.3738321,4.19677299 76.4109311,3.76171875 77.729297,3.76171875 C79.0418036,3.76171875 80.0715785,4.20263231 80.8186525,5.08447266 C81.5657266,5.966313 81.939258,7.17479701 81.939258,8.70996094 L81.939258,8.70996094 Z M74.3982424,8.70996094 C74.3982424,10.0224675 74.6868137,11.046383 75.263965,11.7817383 C75.8411163,12.5170935 76.6570261,12.8847656 77.7117189,12.8847656 C78.7664117,12.8847656 79.5823215,12.5170935 80.1594728,11.7817383 C80.7366241,11.046383 81.0251955,10.0224675 81.0251955,8.70996094 C81.0251955,7.39159497 80.7336945,6.36914426 80.1506838,5.64257812 C79.567673,4.91601199 78.7488336,4.55273438 77.6941408,4.55273438 C76.639448,4.55273438 75.8264679,4.91454716 75.2551759,5.63818359 C74.683884,6.36182002 74.3982424,7.38573557 74.3982424,8.70996094 L74.3982424,8.70996094 Z M90.1468751,13.5 L90.1468751,7.30371094 C90.1468751,6.34276863 89.9447287,5.64404515 89.5404298,5.20751953 C89.1361309,4.77099391 88.5091841,4.55273438 87.6595705,4.55273438 C86.5169866,4.55273438 85.6805692,4.84130571 85.1502931,5.41845703 C84.620017,5.99560835 84.354883,6.93163415 84.354883,8.2265625 L84.354883,13.5 L83.4847658,13.5 L83.4847658,3.94628906 L84.223047,3.94628906 L84.3900392,5.25585938 L84.4427736,5.25585938 C85.0638704,4.25976064 86.1683516,3.76171875 87.7562501,3.76171875 C89.9242297,3.76171875 91.0082033,4.92479306 91.0082033,7.25097656 L91.0082033,13.5 L90.1468751,13.5 Z M99.6640626,13.5 L99.6640626,7.30371094 C99.6640626,6.34276863 99.4619162,5.64404515 99.0576173,5.20751953 C98.6533184,4.77099391 98.0263716,4.55273438 97.1767579,4.55273438 C96.0341741,4.55273438 95.1977567,4.84130571 94.6674806,5.41845703 C94.1372045,5.99560835 93.8720704,6.93163415 93.8720704,8.2265625 L93.8720704,13.5 L93.0019532,13.5 L93.0019532,3.94628906 L93.7402345,3.94628906 L93.9072267,5.25585938 L93.9599611,5.25585938 C94.5810579,4.25976064 95.6855391,3.76171875 97.2734376,3.76171875 C99.4414172,3.76171875 100.525391,4.92479306 100.525391,7.25097656 L100.525391,13.5 L99.6640626,13.5 Z M106.377539,13.6757812 C104.98886,13.6757812 103.906352,13.2480512 103.129981,12.3925781 C102.353609,11.5371051 101.96543,10.3388749 101.96543,8.79785156 C101.96543,7.27440645 102.340426,6.0542038 103.09043,5.13720703 C103.840434,4.22021026 104.851166,3.76171875 106.122656,3.76171875 C107.247662,3.76171875 108.135348,4.15429295 108.785742,4.93945312 C109.436136,5.7246133 109.761328,6.79100889 109.761328,8.13867188 L109.761328,8.84179688 L102.879492,8.84179688 C102.891211,10.1543034 103.19736,11.1562465 103.797949,11.8476562 C104.398538,12.539066 105.258393,12.8847656 106.377539,12.8847656 C106.922464,12.8847656 107.401463,12.8466801 107.814551,12.7705078 C108.227639,12.6943356 108.750583,12.5302747 109.383399,12.2783203 L109.383399,13.0693359 C108.844333,13.3037121 108.346291,13.4633785 107.889258,13.5483398 C107.432224,13.6333012 106.928323,13.6757812 106.377539,13.6757812 L106.377539,13.6757812 Z M106.122656,4.53515625 C105.20273,4.53515625 104.464456,4.83837587 103.907813,5.44482422 C103.351169,6.05127256 103.025977,6.92577554 102.932227,8.06835938 L108.838477,8.06835938 C108.838477,6.96093196 108.598245,6.09521796 108.117774,5.47119141 C107.637302,4.84716485 106.97227,4.53515625 106.122656,4.53515625 L106.122656,4.53515625 Z M115.1125,13.6757812 C113.747259,13.6757812 112.677934,13.2451215 111.904492,12.3837891 C111.131051,11.5224566 110.744336,10.3212968 110.744336,8.78027344 C110.744336,7.19823428 111.145699,5.966313 111.948438,5.08447266 C112.751176,4.20263231 113.849798,3.76171875 115.244336,3.76171875 C116.070512,3.76171875 116.86152,3.905272 117.617383,4.19238281 L117.380078,4.96582031 C116.553902,4.69042831 115.836136,4.55273438 115.226758,4.55273438 C114.054877,4.55273438 113.167191,4.91454716 112.563672,5.63818359 C111.960153,6.36182002 111.658399,7.40331352 111.658399,8.76269531 C111.658399,10.0517643 111.960153,11.0610315 112.563672,11.7905273 C113.167191,12.5200232 114.010932,12.8847656 115.094922,12.8847656 C115.962114,12.8847656 116.76777,12.7294937 117.511914,12.4189453 L117.511914,13.2275391 C116.902536,13.5263687 116.102739,13.6757812 115.1125,13.6757812 L115.1125,13.6757812 Z M122.272266,12.9023438 C122.82305,12.9023438 123.303514,12.8554692 123.713672,12.7617188 L123.713672,13.4648438 C123.291795,13.6054695 122.805472,13.6757812 122.254688,13.6757812 C121.410933,13.6757812 120.788381,13.4501976 120.387012,12.9990234 C119.985643,12.5478493 119.784961,11.838872 119.784961,10.8720703 L119.784961,4.70214844 L118.369922,4.70214844 L118.369922,4.19238281 L119.784961,3.796875 L120.224414,1.63476562 L120.672656,1.63476562 L120.672656,3.94628906 L123.476367,3.94628906 L123.476367,4.70214844 L120.672656,4.70214844 L120.672656,10.7490234 C120.672656,11.481449 120.801561,12.0234357 121.059375,12.375 C121.317189,12.7265643 121.721482,12.9023438 122.272266,12.9023438 L122.272266,12.9023438 Z" id="Trimble-Connect" sketch:type="MSShapeGroup"></path>
        </g>
    </g>
</svg>